<?xml version="1.0" encoding="UTF-8" standalone="no"?>
<!-- Created with Inkscape (http://www.inkscape.org/) -->

<svg
   width="400"
   height="400"
   viewBox="0 0 100 100"
   version="1.1"
   id="svg1"
   inkscape:version="1.4 (e7c3feb100, 2024-10-09)"
   sodipodi:docname="Book-path.svg"
   inkscape:export-filename="Book.png"
   inkscape:export-xdpi="96"
   inkscape:export-ydpi="96"
   xmlns:inkscape="http://www.inkscape.org/namespaces/inkscape"
   xmlns:sodipodi="http://sodipodi.sourceforge.net/DTD/sodipodi-0.dtd"
   xmlns="http://www.w3.org/2000/svg"
   xmlns:svg="http://www.w3.org/2000/svg">
  <sodipodi:namedview
     id="namedview1"
     pagecolor="#505050"
     bordercolor="#eeeeee"
     borderopacity="1"
     inkscape:showpageshadow="0"
     inkscape:pageopacity="0"
     inkscape:pagecheckerboard="0"
     inkscape:deskcolor="#505050"
     inkscape:document-units="px"
     inkscape:zoom="0.94608586"
     inkscape:cx="134.23729"
     inkscape:cy="186.02963"
     inkscape:window-width="1920"
     inkscape:window-height="1011"
     inkscape:window-x="0"
     inkscape:window-y="0"
     inkscape:window-maximized="1"
     inkscape:current-layer="layer1" />
  <defs
     id="defs1" />
  <g
     inkscape:label="圖層 1"
     inkscape:groupmode="layer"
     id="layer1">
    <rect
       style="fill:#ffffff;stroke-width:0.250392"
       id="rect2"
       width="100"
       height="100"
       x="0"
       y="0" />
    <rect
       style="fill:#dc143c;fill-opacity:1;stroke-width:0.25"
       id="rect1"
       width="50"
       height="50"
       x="50"
       y="0" />
    <rect
       style="fill:#199fd6;fill-opacity:1;stroke-width:0.25"
       id="rect1-2"
       width="50"
       height="50"
       x="0"
       y="50" />
    <path
       style="font-size:40px;line-height:0.9;font-family:'Noto Sans CJK JP';-inkscape-font-specification:'Noto Sans CJK JP';text-align:center;text-anchor:middle;stroke-width:0.250394"
       d="m 41.68,29.529999 c 0,-5.72 -4.68,-9.84 -7.6,-12.6 -3.56,-3.4 -7.56,-7.8399996 -9,-10.1199996 -0.04,-0.08 -0.12,-0.08 -0.16,0 -1.44,2.28 -5.44,6.7199996 -9,10.1199996 -2.92,2.76 -7.6,6.88 -7.6,12.6 0,4.64 3.24,8.72 8,8.72 3.04,0 5.6,-1.6 6.6,-3.88 0.28,-0.6 0.32,-0.88 0.64,-0.88 0.28,0 0.24,0.64 0.24,0.72 -0.24,4.16 -1.72,6.36 -3.96,8.24 -0.48,0.4 -0.16,0.8 0,0.8 h 10.32 c 0.16,0 0.44,-0.4 0,-0.8 -2.24,-1.88 -3.72,-4.08 -3.96,-8.24 0,-0.08 -0.04,-0.72 0.24,-0.72 0.32,0 0.36,0.28 0.64,0.88 1,2.28 3.56,3.88 6.6,3.88 4.8,0 8,-4.08 8,-8.72 z"
       id="text2"
       aria-label="♠" />
    <path
       style="font-size:40px;line-height:0.9;font-family:'Noto Sans CJK JP';-inkscape-font-specification:'Noto Sans CJK JP';text-align:center;text-anchor:middle;fill:#ffffff;stroke-width:0.250394"
       d="m 83.48,8.3100015 c -3.76,0 -7.12,1.9600005 -8.28,6.4000005 -0.04,0.12 -0.08,0.28 -0.2,0.28 -0.12,0 -0.16,-0.16 -0.2,-0.28 -1.2,-4.44 -4.52,-6.4000005 -8.28,-6.4000005 -4.56,0 -8.36,4.2000005 -8.36,9.6400005 0,5.88 4.76,10.16 7.76,13.04 3.64,3.48 7.52,8.24 9,10.64 0.04,0.08 0.12,0.08 0.16,0 1.48,-2.4 5.36,-7.16 9,-10.64 3,-2.88 7.76,-7.12 7.76,-13.04 0,-5.44 -3.8,-9.6400005 -8.36,-9.6400005 z"
       id="text3"
       aria-label="♥" />
    <path
       style="font-size:40px;line-height:0.9;font-family:'Noto Sans CJK JP';-inkscape-font-specification:'Noto Sans CJK JP';text-align:center;text-anchor:middle;fill:#ffffff;stroke-width:0.250394"
       d="m 25,56.199997 c -3.6,6.72 -10.84,15.32 -14.44,18.8 3.6,3.48 10.84,12.08 14.44,18.8 3.64,-6.72 10.84,-15.32 14.44,-18.8 -3.6,-3.48 -10.84,-12.08 -14.44,-18.8 z"
       id="text4"
       aria-label="♦" />
    <path
       style="font-size:40px;line-height:0.9;font-family:'Noto Sans CJK JP';-inkscape-font-specification:'Noto Sans CJK JP';text-align:center;text-anchor:middle;stroke-width:0.250394"
       d="m 72.92,83.420002 c 0.36,-0.56 0.32,-0.88 0.64,-0.88 0.28,0 0.24,0.64 0.24,0.72 -0.24,4.16 -1.72,6.36 -3.96,8.24 -0.44,0.4 -0.16,0.8 0.04,0.8 h 10.28 c 0.16,0 0.48,-0.4 0,-0.8 -2.24,-1.88 -3.68,-4.08 -3.96,-8.24 0,-0.08 -0.04,-0.72 0.24,-0.72 0.32,0 0.28,0.32 0.64,0.88 1.64,2.56 4.32,4.16 7.32,4.16 4.52,0 8.04,-3.36 8.04,-8.12 0,-4.56 -3.36,-8.16 -8.12,-8.16 -1.12,0 -2.48,0.44 -3.4,0.92 0,0 -0.2,0.08 -0.28,-0.08 -0.12,-0.2 0.12,-0.36 0.12,-0.36 1.4,-1.32 2.48,-3.4 2.48,-5.8 0,-4.56 -3.68,-8.28 -8.24,-8.28 -4.6,0 -8.24,3.76 -8.24,8.32 0,2.4 1.08,4.44 2.48,5.76 0,0 0.24,0.16 0.12,0.36 -0.08,0.16 -0.28,0.08 -0.28,0.08 -0.92,-0.48 -2.24,-0.92 -3.44,-0.92 -4.64,0 -8.08,3.6 -8.08,8.16 0,4.76 3.52,8.12 8.04,8.12 3.16,0 5.84,-1.84 7.32,-4.16 z"
       id="text5"
       aria-label="♣" />
  </g>
</svg>
