<?xml version="1.0" encoding="UTF-8" standalone="no"?>
<!-- Created with Inkscape (http://www.inkscape.org/) -->

<svg
   width="200"
   height="200"
   viewBox="0 0 50 50"
   version="1.1"
   id="svg1"
   inkscape:version="1.4.2 (ebf0e940d0, 2025-05-08)"
   sodipodi:docname="favicon.svg"
   inkscape:export-filename="favicon.png"
   inkscape:export-xdpi="96"
   inkscape:export-ydpi="96"
   xmlns:inkscape="http://www.inkscape.org/namespaces/inkscape"
   xmlns:sodipodi="http://sodipodi.sourceforge.net/DTD/sodipodi-0.dtd"
   xmlns="http://www.w3.org/2000/svg"
   xmlns:svg="http://www.w3.org/2000/svg">
  <sodipodi:namedview
     id="namedview1"
     pagecolor="#505050"
     bordercolor="#eeeeee"
     borderopacity="1"
     inkscape:showpageshadow="0"
     inkscape:pageopacity="0"
     inkscape:pagecheckerboard="0"
     inkscape:deskcolor="#505050"
     inkscape:document-units="px"
     inkscape:zoom="1.3379675"
     inkscape:cx="32.1383"
     inkscape:cy="1.4948047"
     inkscape:window-width="1920"
     inkscape:window-height="1014"
     inkscape:window-x="0"
     inkscape:window-y="0"
     inkscape:window-maximized="1"
     inkscape:current-layer="layer1" />
  <defs
     id="defs1" />
  <g
     inkscape:label="圖層 1"
     inkscape:groupmode="layer"
     id="layer1"
     transform="translate(-25,-25)">
    <rect
       style="fill:#ffffff;stroke-width:0.125196"
       id="rect2"
       width="50"
       height="50"
       x="25"
       y="25" />
    <rect
       style="fill:#dc143c;fill-opacity:1;stroke-width:0.125"
       id="rect1"
       width="25"
       height="25"
       x="50"
       y="25" />
    <rect
       style="fill:#199fd6;fill-opacity:1;stroke-width:0.125"
       id="rect1-2"
       width="25"
       height="25"
       x="25"
       y="50" />
    <path
       style="font-size:40px;line-height:0.9;font-family:'Noto Sans CJK JP';-inkscape-font-specification:'Noto Sans CJK JP';text-align:center;text-anchor:middle;stroke-width:0.125197"
       d="m 45.84,39.765 c 0,-2.86 -2.34,-4.920001 -3.8,-6.3 -1.78,-1.7 -3.78,-3.92 -4.5,-5.06 -0.02,-0.04 -0.06,-0.04 -0.08,0 -0.72,1.14 -2.72,3.36 -4.5,5.06 -1.46,1.379999 -3.8,3.44 -3.8,6.3 0,2.32 1.62,4.36 4,4.36 1.52,0 2.8,-0.8 3.3,-1.94 0.14,-0.300001 0.16,-0.440001 0.32,-0.440001 0.14,0 0.12,0.32 0.12,0.36 -0.12,2.08 -0.86,3.18 -1.98,4.12 -0.24,0.2 -0.08,0.400001 0,0.400001 h 5.16 c 0.08,0 0.22,-0.200001 0,-0.400001 -1.12,-0.94 -1.86,-2.039999 -1.98,-4.12 0,-0.04 -0.02,-0.36 0.12,-0.36 0.16,0 0.18,0.14 0.32,0.440001 0.5,1.14 1.78,1.94 3.3,1.94 2.4,0 4,-2.04 4,-4.36 z"
       id="text2"
       aria-label="♠" />
    <path
       style="font-size:40px;line-height:0.9;font-family:'Noto Sans CJK JP';-inkscape-font-specification:'Noto Sans CJK JP';text-align:center;text-anchor:middle;fill:#ffffff;stroke-width:0.125197"
       d="m 66.74,29.155001 c -1.88,0 -3.56,0.98 -4.14,3.2 -0.02,0.06 -0.04,0.14 -0.1,0.14 -0.06,0 -0.08,-0.08 -0.1,-0.14 -0.6,-2.22 -2.26,-3.2 -4.14,-3.2 -2.28,0 -4.18,2.1 -4.18,4.82 0,2.94 2.38,5.08 3.88,6.52 1.82,1.74 3.76,4.12 4.5,5.32 0.02,0.04 0.06,0.04 0.08,0 0.74,-1.2 2.68,-3.58 4.5,-5.32 1.5,-1.44 3.88,-3.56 3.88,-6.52 0,-2.72 -1.9,-4.82 -4.18,-4.82 z"
       id="text3"
       aria-label="♥" />
    <path
       style="font-size:40px;line-height:0.9;font-family:'Noto Sans CJK JP';-inkscape-font-specification:'Noto Sans CJK JP';text-align:center;text-anchor:middle;fill:#ffffff;stroke-width:0.125197"
       d="m 37.5,53.099998 c -1.8,3.36 -5.42,7.660001 -7.22,9.400001 1.8,1.74 5.42,6.039999 7.22,9.4 1.82,-3.360001 5.42,-7.660001 7.22,-9.4 -1.8,-1.74 -5.42,-6.04 -7.22,-9.400001 z"
       id="text4"
       aria-label="♦" />
    <path
       style="font-size:40px;line-height:0.9;font-family:'Noto Sans CJK JP';-inkscape-font-specification:'Noto Sans CJK JP';text-align:center;text-anchor:middle;stroke-width:0.125197"
       d="m 61.46,66.710001 c 0.18,-0.28 0.16,-0.44 0.32,-0.44 0.14,0 0.12,0.32 0.12,0.36 -0.12,2.08 -0.86,3.18 -1.98,4.12 -0.22,0.2 -0.08,0.4 0.02,0.4 h 5.14 c 0.08,0 0.24,-0.2 0,-0.4 -1.12,-0.94 -1.84,-2.04 -1.98,-4.12 0,-0.04 -0.02,-0.36 0.12,-0.36 0.16,0 0.14,0.16 0.32,0.44 0.82,1.28 2.16,2.08 3.66,2.08 2.26,0 4.02,-1.68 4.02,-4.06 0,-2.28 -1.68,-4.08 -4.06,-4.08 -0.56,0 -1.24,0.22 -1.7,0.46 0,0 -0.1,0.04 -0.14,-0.04 -0.06,-0.1 0.06,-0.18 0.06,-0.18 0.7,-0.66 1.24,-1.7 1.24,-2.9 0,-2.28 -1.84,-4.14 -4.12,-4.14 -2.3,0 -4.12,1.88 -4.12,4.16 0,1.2 0.54,2.22 1.24,2.88 0,0 0.12,0.08 0.06,0.18 -0.04,0.08 -0.14,0.04 -0.14,0.04 -0.46,-0.24 -1.12,-0.46 -1.72,-0.46 -2.32,0 -4.04,1.8 -4.04,4.08 0,2.38 1.76,4.06 4.02,4.06 1.58,0 2.92,-0.92 3.66,-2.08 z"
       id="text5"
       aria-label="♣" />
  </g>
</svg>
